<?xml version="1.0" encoding="UTF-8"?>
<svg width="752pt" height="752pt" version="1.1" viewBox="0 0 752 752" xmlns="http://www.w3.org/2000/svg">
 <g>
  <path d="m411.04 365.58c0-6.6289 3.3164-12.785 8.5234-16.574-3.3164-4.7344-4.7344-11.367-2.8398-17.996 2.8398-8.5234 11.367-14.207 20.363-14.207h18.941c4.2617-7.5781 11.84-12.785 20.836-13.734l27.469-3.7891c14.68-1.8945 29.363 2.8398 40.727 12.312l27.469 24.152h21.789c3.3164 0 6.6289 2.8398 6.6289 6.6289s-2.8398 6.6289-6.6289 6.6289l-24.152 0.003906c-1.4219 0-2.8398-0.47266-4.2617-1.4219l-29.363-26.047c-8.5234-7.5781-19.418-10.891-30.309-9.4727l-27.469 3.7891c-8.0508 0.94531-13.734 8.0508-13.734 16.102l0.47266 33.152c0 4.2617 3.3164 7.1055 7.5781 7.1055 1.8945 0 3.7891-0.94531 5.2109-2.3672 1.418-1.4219 1.8945-3.3164 1.8945-5.6875l-0.94531-22.73c0-3.3164 2.3672-6.1562 5.2109-6.6289l14.207-2.3672c3.3164-0.47266 6.6289 1.8945 7.1055 5.2109 0.47266 3.3164-1.8945 6.6289-5.2109 7.1055l-7.1055 0.94531c10.418 22.73 32.676 20.836 33.625 20.836 3.3164-0.47266 6.6289 2.3672 7.1055 5.6836v0.47266c0 3.3164-2.3672 6.1562-5.6836 6.1562-8.9961 0.94531-24.152-1.4219-35.992-13.262-0.47266 4.2617-2.3672 8.5234-5.6836 11.367-1.4219 1.4219-2.8398 2.3672-4.7344 3.7891 1.8945 3.3164 3.3164 7.1055 3.3164 11.367 0 6.6289-3.3164 12.312-8.0508 16.102 2.3672 3.3164 3.7891 7.5781 3.7891 11.84 0 3.3164-0.94531 6.1562-1.8945 8.5234 17.996 3.3164 36.938 3.7891 50.672 3.3164 11.84 0 22.73-6.1562 28.887-16.102l3.7891-6.1562c0.94531-1.8945 3.3164-2.8398 5.2109-2.8398l26.516-0.003906c3.3164 0 6.6289 2.8398 6.6289 6.6289 0 3.7891-2.8398 6.6289-6.6289 6.6289h-22.258l-1.8945 2.8398c-8.5234 13.734-23.68 22.258-39.781 22.258-16.574 0-40.727-0.47266-62.512-5.6836-1.8945 0.47266-4.2617 0.94531-6.1562 0.94531h-20.836c-11.367 0-21.312-8.9961-21.312-20.363 0-4.7344 1.4219-8.5234 3.7891-12.312-4.7344-3.7891-8.0508-9.4727-8.0508-16.102 0-4.2617 1.4219-8.5234 3.7891-11.84-4.7383-1.4141-8.0547-7.5742-8.0547-14.203zm40.73-35.52h-16.102c-4.2617 0-7.5781 3.3164-7.5781 7.5781s3.3164 7.5781 7.5781 7.5781h16.102l-0.47266-13.262c0.47266-0.47266 0.47266-1.418 0.47266-1.8945zm-11.84 99.453h21.785c4.2617 0 7.5781-3.3164 7.5781-7.5781s-3.3164-7.5781-7.5781-7.5781h-21.785c-4.2617 0-7.5781 3.3164-7.5781 7.5781 0 3.7891 3.3125 7.5781 7.5781 7.5781zm-3.7891-28.414h29.836c4.2617 0 7.5781-3.3164 7.5781-7.5781 0-4.2617-3.3164-7.5781-7.5781-7.5781h-29.836c-4.2617 0-7.5781 3.3164-7.5781 7.5781-0.47266 4.2617 3.3164 7.5781 7.5781 7.5781zm-4.7383-27.941h23.207c-0.94531-2.3672-1.8945-5.2109-1.8945-8.0508v-7.1055h-21.312c-4.2617 0-7.5781 3.3164-7.5781 7.5781 0.003906 4.2617 3.3164 7.5781 7.5781 7.5781z"/>
  <path d="m157.68 413.89h25.574c2.3672 0 4.7344 1.4219 5.6836 3.7891 12.312 29.836 64.879 21.785 84.77 18.941h0.94531c10.418-1.4219 18.941-2.3672 26.992-2.3672h31.73c4.2617 0 7.5781-3.3164 7.5781-7.5781s-3.3164-7.5781-7.5781-7.5781h-45.938c-3.3164 0-6.6289-2.8398-6.6289-6.6289 0-3.3164 2.8398-6.1562 6.6289-6.1562l72.934 0.003906c4.2617 0 7.5781-3.3164 7.5781-7.5781s-3.3164-7.5781-7.5781-7.5781h-63.461c-3.7891 0-6.6289-2.8398-6.6289-6.1562 0-3.7891 2.8398-6.6289 6.6289-6.6289h73.879c4.2617 0 7.5781-3.3164 7.5781-7.5781s-3.3164-7.5781-7.5781-7.5781h-68.195c-3.7891 0-6.6289-2.8398-6.6289-6.6289 0-3.3164 2.8398-6.1562 6.6289-6.1562h57.777c4.2617 0 7.5781-3.3164 7.5781-7.5781 0-4.2617-3.3164-7.5781-7.5781-7.5781h-55.41c-3.7891 4.2617-9.4727 6.1562-15.156 6.1562h-16.102c-11.84 44.516-50.672 40.254-51.148 40.254-3.3164-0.47266-5.6836-3.3164-5.6836-6.1562v-0.94531c0.47266-3.3164 3.7891-6.1562 7.1055-5.6836 1.4219 0 26.047 2.8398 35.992-26.992-2.3672 0-4.2617 0.47266-6.6289 0.94531l-4.2617 0.94531c-3.3164 0.94531-6.6289-1.4219-7.5781-4.7344-0.94531-3.3164 1.4219-6.6289 4.7344-7.5781l4.2617-0.94531c4.7344-0.94531 9.9453-1.4219 15.156-1.4219h23.68c2.3672 0 4.2617-0.94531 5.6836-2.3672s2.3672-3.7891 2.3672-5.6836c0-4.2617-3.7891-7.5781-7.5781-7.5781l-45.465-0.94531c-12.312-0.47266-23.68 4.2617-32.676 12.785l-25.574 24.625c-1.4219 0.94531-2.8398 1.8945-4.2617 1.8945h-24.152c-3.3164 0-6.6289-2.8398-6.6289-6.6289s2.8438-7.1055 6.6328-7.1055h21.785l23.68-22.73c11.367-10.891 26.047-16.574 41.676-16.102l45.934 0.94531c10.891 0.47266 19.891 8.9961 20.363 19.891v2.3672l49.254 0.003906c10.891 0 20.363 8.9961 20.363 20.363 0 3.3164-0.94531 6.1562-2.3672 8.9961 7.5781 2.8398 12.785 10.418 12.785 18.941 0 8.5234-5.2109 15.629-12.785 18.941 1.4219 2.8398 2.3672 5.6836 2.3672 8.9961 0 11.367-8.9961 20.363-20.363 20.363h-8.5234c0.94531 2.3672 1.4219 4.7344 1.4219 7.5781 0 11.367-8.9961 20.363-20.363 20.363h-31.73c-7.5781 0-15.629 0.47266-25.102 1.8945h-0.94531c-21.785 3.3164-77.668 11.367-96.137-22.73h-21.312c-3.3164 0-6.6289-2.8398-6.6289-6.6289-0.003906-2.8359 2.8398-5.6797 6.6289-5.6797z"/>
 </g>
</svg>
