<?xml version="1.0" encoding="UTF-8"?>
<svg width="752pt" height="752pt" version="1.1" viewBox="0 0 752 752" xmlns="http://www.w3.org/2000/svg">
 <g>
  <path d="m269.92 320.59-26.52-3.3164c-10.891-1.4219-21.312 1.8945-29.363 8.9961l-28.414 25.102c-0.94531 0.94531-2.3672 1.4219-4.2617 1.4219h-23.68c-3.3164 0-6.1562-2.8398-6.1562-6.1562s2.8398-6.1562 6.1562-6.1562h21.312l26.992-23.68c10.891-9.4727 25.102-13.734 39.309-11.84l26.52 3.3164c8.9961 0.94531 16.102 6.1562 20.363 13.262h18.469c8.9961 0 17.051 5.2109 19.891 13.734 1.8945 6.6289 0.47266 12.785-2.8398 17.523 4.7344 3.7891 8.0508 9.4727 8.0508 16.102s-3.3164 12.312-8.0508 15.629c2.3672 3.3164 3.7891 7.1055 3.7891 11.367 0 6.1562-2.8398 11.84-7.5781 15.629 2.3672 3.3164 3.7891 7.1055 3.7891 11.84 0 10.891-9.9453 19.891-20.836 19.891l-20.84-0.007812c-2.3672 0-4.2617-0.47266-6.1562-0.94531-21.312 4.7344-44.516 5.6836-60.617 5.6836-15.629 0-30.309-8.0508-38.359-21.785l-1.8945-2.8398h-21.312c-3.3164 0-6.1562-2.8398-6.1562-6.1562 0-3.3164 2.8398-6.1562 6.1562-6.1562h25.102c2.3672 0 4.2617 0.94531 5.2109 2.8398l3.3086 5.207c6.1562 9.9453 16.574 15.629 27.941 15.629 13.262 0 31.258-0.47266 48.777-3.3164-1.4219-2.3672-1.8945-5.2109-1.8945-8.5234 0-4.2617 1.4219-8.5234 3.7891-11.84-4.7344-3.7891-7.5781-9.4727-7.5781-15.629 0-4.2617 1.4219-8.0508 3.3164-10.891-1.8945-0.94531-3.3164-1.8945-4.7344-3.3164-2.8398-3.3164-4.7344-7.1055-5.2109-11.367-11.367 10.891-26.047 13.734-34.57 12.785-3.3164-0.47266-5.6836-2.8398-5.6836-6.1562v-0.47266c0.47266-3.3164 3.3164-5.6836 6.6289-5.6836 0.94531 0 22.258 1.8945 32.676-20.363l-7.1055-0.94531c-3.3164-0.47266-5.6836-3.7891-5.2109-7.1055s3.7891-5.6836 7.1055-5.2109l14.207 1.8945c3.3164 0.47266 5.2109 3.3164 5.2109 6.6289l-0.94531 21.785c0 1.8945 0.47266 3.7891 1.8945 5.2109 1.4219 1.4219 3.3164 2.3672 5.2109 2.3672 3.7891 0 7.1055-3.3164 7.1055-7.1055l0.47266-32.203c0.47266-6.625-5.2109-13.73-12.785-14.676zm41.199 13.734h-15.629v2.3672l-0.47266 12.785h15.629c4.2617 0 7.5781-3.3164 7.5781-7.5781 0.47266-4.2617-3.3164-7.5742-7.1055-7.5742zm11.84 34.57c0-4.2617-3.3164-7.5781-7.5781-7.5781h-20.363v7.1055c0 2.8398-0.94531 5.2109-1.8945 8.0508h22.258c4.2617-0.47656 7.5781-3.7891 7.5781-7.5781zm-36.938 61.566h21.312c4.2617 0 7.5781-3.3164 7.5781-7.5781s-3.3164-7.5781-7.5781-7.5781h-21.312c-4.2617 0-7.5781 3.3164-7.5781 7.5781s3.3164 7.5781 7.5781 7.5781zm-3.7891-41.676c-4.2617 0-7.5781 3.3164-7.5781 7.5781 0 4.2617 3.3164 7.5781 7.5781 7.5781h28.887c4.2617 0 7.5781-3.3164 7.5781-7.5781 0-4.2617-3.3164-7.5781-7.5781-7.5781z"/>
  <path d="m372.68 366.05 48.777-8.9961-39.781-7.1055c-10.891-1.8945-17.996-12.312-16.102-22.73 1.8945-10.891 12.312-17.996 23.207-16.102l70.562 12.312c3.7891-8.0508 11.84-14.207 21.312-15.156l26.52-3.3125c14.207-1.8945 28.414 2.3672 39.309 11.84l26.992 23.68h21.312c3.3164 0 6.1562 2.8398 6.1562 6.1562s-2.8398 6.1562-6.1562 6.1562h-23.68c-1.4219 0-2.8398-0.47266-4.2617-1.4219l-28.414-25.102c-8.0508-7.1055-18.941-10.418-29.363-8.9961l-26.52 3.3164c-7.5781 0.94531-13.262 7.5781-13.262 15.156v0.47266l0.47266 32.203c0 3.7891 3.3164 7.1055 7.1055 7.1055 1.8945 0 3.7891-0.94531 5.2109-2.3672 1.4219-1.4219 1.8945-3.3164 1.8945-5.2109l-0.94531-21.785c0-3.3164 2.3672-6.1562 5.2109-6.6289l14.207-1.8945c3.3164-0.47266 6.6289 1.8945 7.1055 5.2109 0.47266 3.3164-1.8945 6.6289-5.2109 7.1055l-7.1055 0.94531c10.418 21.785 31.73 20.363 32.676 20.363 3.3164-0.47266 6.6289 2.3672 6.6289 5.6836v0.47266c0 3.3164-2.3672 5.6836-5.6836 6.1562-8.5234 0.94531-23.207-1.4219-34.57-12.785-0.47266 4.2617-2.3672 8.0508-5.2109 10.891-1.4219 1.4219-3.3164 2.8398-5.2109 3.7891 1.4219 2.3672 2.8398 4.7344 3.3164 7.5781 0 1.4219 0.47266 2.3672 0.47266 3.3164 0 5.2109-1.8945 9.9453-5.2109 13.262 2.8398 2.8398 5.2109 6.6289 5.6836 10.891 0 0.94531 0.47266 2.3672 0.47266 3.3164 0 2.8398-0.47266 5.6836-1.8945 8.5234 16.102 2.3672 32.676 2.8398 44.516 2.8398 11.367 0 21.785-6.1562 27.941-15.629l3.7891-5.6836c0.94531-1.8945 3.3164-2.8398 5.2109-2.8398l24.629-0.003906c3.3164 0 6.1562 2.8398 6.1562 6.1562s-2.8398 6.1562-6.1562 6.1562h-21.312l-1.8945 2.8398c-8.5234 13.262-22.73 21.312-38.359 21.785-14.68 0-36.465-0.47266-56.828-4.7344-0.94531 0.47266-1.4219 0.47266-2.3672 0.47266l-20.836 3.7891c-10.891 1.8945-20.836-5.2109-23.207-16.102-0.94531-4.2617 0-8.5234 1.8945-12.312-0.94531-0.47266-1.4219-0.94531-2.3672-1.4219-4.2617-2.8398-7.1055-7.5781-8.0508-12.785-0.47266-2.3672-0.47266-5.2109 0-7.5781l-41.676 7.1055c-5.2109 0.94531-10.418 0-14.68-3.3164-4.2617-2.8398-7.1055-7.5781-8.0508-12.785-0.94531-5.2109 0-10.418 3.3164-14.68 2.3633-3.793 7.0977-6.6328 12.309-7.582zm83.824-30.309-70.09-12.312c-3.7891-0.94531-8.0508 1.8945-8.5234 6.1562v1.4219c0 3.3164 2.3672 6.6289 6.1562 7.1055l72.457 12.785-0.47266-14.207c0.47266-0.47656 0.47266-0.94922 0.47266-0.94922zm-14.68 93.297c0.47266 1.8945 1.4219 3.7891 2.8398 4.7344 1.4219 0.94531 3.7891 1.4219 5.6836 1.4219l20.836-3.7891c1.8945-0.47266 3.7891-1.4219 4.7344-2.8398 0.94531-1.4219 1.4219-3.7891 1.4219-5.6836-0.47266-1.8945-1.4219-3.7891-2.8398-4.7344-1.4219-0.94531-3.7891-1.4219-5.6836-1.4219l-20.836 3.7891c-3.7891 0.47266-6.6328 4.7344-6.1562 8.5234zm-8.5273-26.047c0.47266 1.8945 1.4219 3.7891 2.8398 4.7344 1.4219 0.94531 3.7891 1.4219 5.6836 1.4219l28.414-5.2109c1.8945-0.47266 3.7891-1.4219 4.7344-2.8398 0.94531-1.4219 1.4219-3.7891 1.4219-5.6836-0.47266-3.7891-4.7344-6.6289-8.5234-6.1562l-28.414 5.2109c-1.8945 0.47266-3.7891 1.4219-4.7344 2.8398-0.94531 1.4219-1.4219 2.8398-1.4219 4.2617v1.4219zm-61.562-11.367c1.4219 0.94531 3.7891 1.4219 5.6836 1.4219l82.875-14.68c-1.8945-2.8398-2.8398-6.1562-2.8398-9.4727v-4.7344l-82.402 14.68c-1.8945 0.47266-3.7891 1.4219-4.7344 2.8398-0.94531 1.4219-1.4219 3.7891-1.4219 5.6836-0.003907 1.4219 1.418 2.8398 2.8398 4.2617z"/>
 </g>
</svg>
