<?xml version="1.0" encoding="UTF-8"?>
<svg width="752pt" height="752pt" version="1.1" viewBox="0 0 752 752" xmlns="http://www.w3.org/2000/svg">
 <g>
  <path d="m156.73 404.42h22.258c1.8945 0 3.7891 0.94531 4.7344 2.8398l3.3164 5.2109c5.6836 8.9961 15.156 14.207 25.102 14.207 10.891 0 25.574-0.47266 40.254-2.3672-0.94531-2.3672-1.8945-4.7344-1.8945-7.5781 0-0.94531 0-1.8945 0.47266-3.3164 0.47266-3.7891 2.3672-7.1055 5.2109-9.9453-2.8398-3.3164-4.7344-7.5781-4.7344-11.84 0-0.94531 0-1.8945 0.47266-3.3164 0.47266-2.3672 1.4219-4.7344 2.8398-7.1055-1.8945-0.94531-3.3164-1.8945-4.7344-3.3164-2.8398-2.8398-4.2617-6.1562-4.7344-9.9453-10.418 9.9453-23.68 12.312-31.258 11.367-2.8398-0.47266-5.2109-2.8398-5.2109-5.6836v-0.47266c0.47266-2.8398 2.8398-5.2109 6.1562-5.2109 0.94531 0 20.363 1.4219 29.363-17.996l-6.1562-0.94531c-2.8398-0.47266-5.2109-3.3164-4.7344-6.1562 0.47266-2.8398 3.3164-5.2109 6.1562-4.7344l12.785 1.8945c2.8398 0.47266 4.7344 2.8398 4.7344 5.6836l-0.94531 19.891c0 1.8945 0.47266 3.3164 1.8945 4.7344 1.4219 1.4219 2.8398 1.8945 4.7344 1.8945 3.3164 0 6.6289-2.8398 6.6289-6.6289l0.47266-28.887v-0.47266c0-7.1055-5.2109-12.785-11.84-13.734l-24.152-3.3164c-9.4727-1.4219-19.418 1.8945-26.52 8.0508l-25.574 22.73c-0.94531 0.94531-2.3672 1.4219-3.7891 1.4219h-21.312c-3.3164 0-5.6836-2.3672-5.6836-5.6836s2.3672-5.6836 5.6836-5.6836h19.418l24.152-21.312c9.9453-8.5234 22.73-12.312 35.52-10.891l24.152 3.3164c8.5234 0.94531 15.629 6.6289 18.941 13.734l63.461-11.367c9.9453-1.8945 18.941 4.7344 20.836 14.68 1.8945 9.4727-4.7344 18.941-14.68 20.836l-35.992 6.1562 44.52 9c4.7344 0.94531 8.9961 3.3164 11.367 7.5781 2.8398 3.7891 3.7891 8.5234 2.8398 13.262-0.94531 4.7344-3.3164 8.9961-7.1055 11.367-3.7891 2.8398-8.5234 3.7891-13.262 2.8398l-37.887-6.6289c0.47266 2.3672 0.47266 4.2617 0 6.6289-0.94531 4.7344-3.3164 8.9961-7.1055 11.367-0.47266 0.47266-1.4219 0.94531-1.8945 0.94531 1.4219 3.3164 2.3672 7.1055 1.4219 10.891-1.8945 9.4727-10.891 16.102-20.836 14.68l-18.941-3.3164c-0.94531 0-1.4219-0.47266-2.3672-0.47266-18.469 3.7891-37.887 4.2617-51.148 4.2617-14.207 0-26.992-7.5781-34.57-19.418l-1.4219-2.3672h-19.418c-3.3164 0-5.6836-2.3672-5.6836-5.6836 0.003906-3.3086 2.3711-5.6758 5.6875-5.6758zm189.91-65.355c3.3164-0.47266 5.6836-3.3164 5.6836-6.6289v-0.94531c-0.47266-3.7891-4.2617-6.1562-7.5781-5.2109l-63.461 10.891v0.47266l-0.47266 12.785zm6.1562 49.254c1.8945 0.47266 3.3164 0 4.7344-0.94531 1.4219-0.94531 2.3672-2.3672 2.8398-4.2617 0.47266-1.8945 0-3.7891-0.94531-5.2109-0.94531-1.4219-2.3672-2.3672-4.2617-2.8398l-73.879-13.262v4.2617c0 3.3164-0.94531 6.1562-2.8398 8.5234zm-50.672 9.4688v-0.94531c0-1.4219-0.47266-2.8398-0.94531-3.7891-0.94531-1.4219-2.3672-2.3672-4.2617-2.8398l-25.574-4.7344c-3.7891-0.47266-7.1055 1.8945-7.5781 5.2109-0.47266 1.8945 0 3.3164 0.94531 4.7344 0.94531 1.4219 2.3672 2.3672 4.2617 2.8398l25.574 4.7344c1.8945 0.47266 3.3164 0 4.7344-0.94531 1.4219-1.4219 2.3672-2.8438 2.8438-4.2656zm-38.836 22.734c0.94531 1.4219 2.3672 2.3672 4.2617 2.8398l18.941 3.3164c1.8945 0.47266 3.3164 0 5.2109-0.94531 1.4219-0.94531 2.3672-2.3672 2.8398-4.2617 0.47266-3.7891-1.8945-7.1055-5.2109-7.5781l-18.941-3.3164c-1.8945-0.47266-3.3164 0-5.2109 0.94531-1.4219 0.94531-2.3672 2.3672-2.8398 4.2617 0.003906 1.4219 0.003906 3.3164 0.94922 4.7383z"/>
  <path d="m402.52 355.16c-1.4219-2.3672-1.8945-5.2109-1.8945-8.0508 0-9.9453 8.0508-17.996 17.996-17.996h43.098v-1.8945c0.47266-9.4727 8.0508-17.051 17.523-17.523l39.781-0.94531c13.734-0.47266 26.52 4.7344 36.465 14.207l20.836 19.891h18.941c3.3164 0 5.6836 2.3672 5.6836 5.6836s-2.3672 5.6836-5.6836 5.6836h-21.312c-1.4219 0-2.8398-0.47266-3.7891-1.4219l-22.73-21.312c-7.5781-7.5781-17.996-11.367-28.414-10.891l-39.781 0.94531c-3.7891 0-6.6289 2.8398-6.6289 6.6289 0 1.8945 0.47266 3.7891 1.8945 5.2109s3.3164 2.3672 5.2109 2.3672h20.363c4.2617 0 8.9961 0.47266 13.262 1.4219l3.7891 0.94531c2.8398 0.47266 4.7344 3.7891 4.2617 6.6289-0.47266 2.8398-3.7891 4.7344-6.6289 4.2617l-3.7891-0.94531c-1.8945-0.47266-3.7891-0.47266-5.6836-0.94531 8.5234 26.047 30.309 23.68 31.258 23.68 2.8398-0.47266 5.6836 1.8945 6.1562 4.7344v0.94531c0 2.8398-1.8945 5.2109-4.7344 5.6836-0.47266 0-34.098 3.7891-44.516-35.047h-13.734c-5.2109 0-9.4727-1.8945-13.262-5.6836h-48.305c-3.7891 0-6.6289 2.8398-6.6289 6.6289 0 3.7891 2.8398 6.6289 6.6289 6.6289l50.668 0.007812c3.3164 0 5.6836 2.3672 5.6836 5.6836s-2.3672 5.6836-5.6836 5.6836l-59.672-0.003906c-3.7891 0-6.6289 2.8398-6.6289 6.6289 0 3.7891 2.8398 6.6289 6.6289 6.6289l64.883 0.003906c3.3164 0 5.6836 2.3672 5.6836 5.6836 0 2.8398-2.3672 5.6836-5.6836 5.6836h-55.41c-3.7891 0-6.6289 2.8398-6.6289 6.6289s2.8398 6.6289 6.6289 6.6289h63.461c3.3164 0 5.6836 2.3672 5.6836 5.6836s-2.3672 5.6836-5.6836 5.6836h-40.254c-3.7891 0-6.6289 2.8398-6.6289 6.6289s2.8398 6.6289 6.6289 6.6289h27.469c7.1055 0 14.68 0.47266 23.68 1.8945h0.94531c17.051 2.3672 62.984 9.4727 73.879-16.574 0.94531-3.3125 2.8398-4.7344 5.207-4.7344h22.258c2.8398 0 5.6836 2.3672 5.6836 5.6836 0 3.3164-2.3672 5.6836-5.6836 5.6836h-18.941c-16.102 29.836-65.355 22.73-84.297 19.891h-0.94531c-8.5234-1.4219-15.629-1.8945-22.258-1.8945h-27.469c-9.9453 0-17.996-8.0508-17.996-17.996 0-2.3672 0.47266-4.7344 1.4219-6.6289h-7.1055c-9.9453 0-17.996-8.0508-17.996-17.996 0-2.8398 0.94531-5.6836 1.8945-8.0508-6.6289-2.8398-11.367-8.9961-11.367-16.574 0.94531-7.1094 5.6836-13.738 12.312-16.105z"/>
 </g>
</svg>
